Coordinates
version=1
nRows=34
nColumns=38
inDegrees=no

Units are S.I. units (second, meters, Newtons, ...)
If the header above contains a line with 'inDegrees', this indicates whether rotational values are in degrees (yes) or radians (no).

endheader
time	pelvis_tilt	pelvis_list	pelvis_rotation	pelvis_tx	pelvis_ty	pelvis_tz	hip_flexion_r	hip_adduction_r	hip_rotation_r	knee_angle_r	ankle_angle_r	subtalar_angle_r	mtp_angle_r	hip_flexion_l	hip_adduction_l	hip_rotation_l	knee_angle_l	ankle_angle_l	subtalar_angle_l	mtp_angle_l	lumbar_extension	lumbar_bending	lumbar_rotation	arm_flex_r	arm_add_r	arm_rot_r	elbow_flex_r	pro_sup_r	wrist_flex_r	wrist_dev_r	arm_flex_l	arm_add_l	arm_rot_l	elbow_flex_l	pro_sup_l	wrist_flex_l	wrist_dev_l
12.24	0.888243	1.54683	0.913767	0.531515	1.2854	1.06871	0.114476	0.0251562	-0.0949771	0.197696	-0.294584	0	0	0.11945	-0.181736	-0.19055	0.992516	-0.217339	0	0	-0.424135	0.00754948	-0.0627539	-0.0674695	-0.431022	0.281922	1.27603	1.2952	0	0	-0.259037	-0.361848	-0.0535616	1.40911	1.5708	0	0
12.25	0.766847	1.54947	1.03755	0.531593	1.2879	1.06937	0.107661	0.0224369	-0.0964998	0.190532	-0.296501	0	0	0.132691	-0.178742	-0.19162	0.993657	-0.209273	0	0	-0.425412	0.00503311	-0.0624658	-0.0742258	-0.428629	0.279055	1.27592	1.29507	0	0	-0.25862	-0.364542	-0.0501195	1.405	1.5708	0	0
12.26	0.582771	1.55161	1.22337	0.531658	1.2903	1.06999	0.102052	0.0190606	-0.0965308	0.185132	-0.297663	0	0	0.145224	-0.174653	-0.19296	0.990228	-0.202817	0	0	-0.426355	0.00182098	-0.0621068	-0.0807867	-0.426216	0.275786	1.27604	1.29535	0	0	-0.258252	-0.36689	-0.0468565	1.40109	1.5708	0	0
12.27	0.358359	1.5535	1.44871	0.531763	1.29275	1.07069	0.0964022	0.0156012	-0.0949938	0.181156	-0.298064	0	0	0.155756	-0.169895	-0.194424	0.982015	-0.198442	0	0	-0.427625	-0.00182955	-0.0615469	-0.0867479	-0.42392	0.273194	1.27581	1.29655	0	0	-0.258315	-0.368779	-0.0441388	1.39738	1.5708	0	0
12.28	0.0753604	1.55456	1.73208	0.532004	1.29521	1.07148	0.0910014	0.0117911	-0.0934304	0.177457	-0.298556	0	0	0.164672	-0.163923	-0.194596	0.968983	-0.194736	0	0	-0.429028	-0.00624049	-0.0602826	-0.0928996	-0.421161	0.269856	1.27527	1.29859	0	0	-0.258075	-0.370913	-0.0407218	1.39339	1.5708	0	0
12.29	-0.196711	1.5541	2.00482	0.532201	1.29748	1.0722	0.0870802	0.00805657	-0.0928372	0.175821	-0.298554	0	0	0.173807	-0.158545	-0.196066	0.954131	-0.193115	0	0	-0.43042	-0.0101847	-0.0597277	-0.0983084	-0.418519	0.266713	1.2747	1.30057	0	0	-0.258313	-0.372393	-0.0382309	1.38982	1.5708	0	0
12.3	-0.419581	1.55216	2.22829	0.532345	1.29958	1.07285	0.084249	0.00425707	-0.092461	0.175315	-0.29805	0	0	0.183048	-0.153206	-0.198646	0.936872	-0.191985	0	0	-0.431579	-0.0140458	-0.059184	-0.103527	-0.415907	0.263145	1.27406	1.30292	0	0	-0.258186	-0.373839	-0.0355888	1.3864	1.5708	0	0
12.31	-0.581	1.54959	2.38998	0.532437	1.3015	1.07345	0.082251	0.000342115	-0.0917948	0.175893	-0.297293	0	0	0.192027	-0.148184	-0.202256	0.918171	-0.191816	0	0	-0.432912	-0.0175149	-0.0584374	-0.108537	-0.41378	0.25944	1.27402	1.3052	0	0	-0.257825	-0.374915	-0.0330073	1.38318	1.5708	0	0
12.32	-0.699901	1.54671	2.50894	0.53248	1.30332	1.07398	0.0804971	-0.00367191	-0.090649	0.176521	-0.296501	0	0	0.200491	-0.143499	-0.207113	0.898598	-0.192555	0	0	-0.434292	-0.0207728	-0.0576365	-0.113493	-0.411978	0.255664	1.27462	1.30712	0	0	-0.257559	-0.375626	-0.0306902	1.38019	1.5708	0	0
12.33	-0.789542	1.54357	2.59934	0.532413	1.30515	1.07445	0.0784854	-0.00773882	-0.0914505	0.176975	-0.29511	0	0	0.208545	-0.138886	-0.212655	0.878317	-0.194034	0	0	-0.436157	-0.0241712	-0.0572447	-0.118887	-0.409821	0.251359	1.27568	1.30949	0	0	-0.257656	-0.376516	-0.0287417	1.37825	1.5708	0	0
12.34	-0.861393	1.54082	2.67284	0.532164	1.30695	1.07489	0.075772	-0.0113362	-0.0942617	0.176913	-0.293643	0	0	0.216218	-0.135017	-0.218892	0.859183	-0.195388	0	0	-0.438267	-0.02664	-0.0579661	-0.123889	-0.40795	0.247772	1.27692	1.31176	0	0	-0.258386	-0.377144	-0.0275462	1.37663	1.5708	0	0
12.35	-0.927152	1.53826	2.74085	0.53175	1.3087	1.07529	0.0723798	-0.0148384	-0.0978326	0.176186	-0.292458	0	0	0.223194	-0.131446	-0.226207	0.840669	-0.196213	0	0	-0.440673	-0.0285353	-0.0593212	-0.128624	-0.406731	0.244986	1.27845	1.31369	0	0	-0.259302	-0.377692	-0.0265392	1.37526	1.5708	0	0
12.36	-0.984316	1.53584	2.80044	0.531253	1.31044	1.07564	0.0686905	-0.018117	-0.101645	0.17501	-0.291702	0	0	0.229539	-0.12849	-0.235341	0.822531	-0.195439	0	0	-0.443056	-0.0300491	-0.0608532	-0.133254	-0.405814	0.242592	1.27999	1.31516	0	0	-0.260451	-0.37823	-0.0255598	1.37427	1.5708	0	0
12.37	-1.39231	1.55196	-3.07351	0.531723	1.31178	1.07943	0.0551217	-0.0170491	-0.283059	0.16555	-0.349501	0	0	0.221832	-0.147415	-0.246181	0.801962	-0.198725	0	0	-0.464757	-0.0147148	-0.0533893	-0.131422	-0.407079	0.239434	1.28089	1.31768	0	0	-0.25282	-0.375929	-0.0227124	1.37009	1.5708	0	0
12.38	-1.09882	1.53275	2.91893	0.530229	1.31381	1.07634	0.0597957	-0.0228067	-0.110557	0.17152	-0.298424	0	0	0.238548	-0.125665	-0.257368	0.787569	-0.192207	0	0	-0.44922	-0.0312248	-0.0614008	-0.143872	-0.405124	0.236095	1.28504	1.31757	0	0	-0.261704	-0.379427	-0.0218723	1.37322	1.5708	0	0
12.39	-1.12037	1.53167	2.94172	0.529699	1.31544	1.07644	0.0572062	-0.0243271	-0.113845	0.171806	-0.295942	0	0	0.243309	-0.125559	-0.269573	0.771694	-0.191358	0	0	-0.450305	-0.0311335	-0.0623194	-0.147264	-0.405989	0.236376	1.28612	1.31768	0	0	-0.264179	-0.379049	-0.021925	1.37298	1.5708	0	0
12.4	-1.52684	1.54747	-2.93519	0.530108	1.31666	1.07994	0.0454378	-0.0223637	-0.294229	0.166166	-0.347602	0	0	0.233502	-0.145657	-0.280768	0.752259	-0.195668	0	0	-0.470616	-0.0146288	-0.0530466	-0.145427	-0.409538	0.235015	1.28771	1.31471	0	0	-0.25647	-0.37648	-0.0179626	1.36867	1.5708	0	0
12.41	-1.18757	1.53079	3.01051	0.528527	1.31866	1.07658	0.0534021	-0.0272854	-0.124015	0.179203	-0.281528	0	0	0.24782	-0.125459	-0.292096	0.738393	-0.192198	0	0	-0.453264	-0.0297492	-0.0595277	-0.15806	-0.409603	0.233337	1.2921	1.31137	0	0	-0.26511	-0.380186	-0.0152516	1.37088	1.5708	0	0
12.42	-1.24284	1.5318	3.06634	0.527928	1.32033	1.07671	0.0510357	-0.0278443	-0.132313	0.183765	-0.288179	0	0	0.247822	-0.127092	-0.303362	0.722909	-0.192154	0	0	-0.45526	-0.0277445	-0.0591379	-0.161482	-0.411881	0.233899	1.29386	1.3135	0	0	-0.26746	-0.379789	-0.0143022	1.37052	1.5708	0	0
12.43	-1.27395	1.5326	3.09765	0.527292	1.32196	1.07663	0.0490996	-0.0278643	-0.136692	0.187615	-0.28303	0	0	0.24825	-0.128242	-0.313799	0.708206	-0.196456	0	0	-0.455675	-0.0258382	-0.0577774	-0.165579	-0.414963	0.234482	1.296	1.3123	0	0	-0.26923	-0.379788	-0.0118055	1.36951	1.5708	0	0
12.44	-1.30588	1.53355	3.12932	0.52663	1.32358	1.07646	0.0459852	-0.0271403	-0.137961	0.188409	-0.278619	0	0	0.247645	-0.129191	-0.323668	0.6937	-0.206785	0	0	-0.4558	-0.0237786	-0.0553881	-0.170258	-0.418994	0.235157	1.29889	1.31007	0	0	-0.270423	-0.380188	-0.00785764	1.36831	1.5708	0	0
12.45	-1.33342	1.53488	-3.12718	0.526016	1.32522	1.07617	0.0439209	-0.0263413	-0.138092	0.190052	-0.275552	0	0	0.246565	-0.130613	-0.33332	0.680713	-0.222537	0	0	-0.455035	-0.0216011	-0.0527442	-0.174959	-0.423143	0.235759	1.30183	1.30701	0	0	-0.272272	-0.380341	-0.0042728	1.36732	1.5708	0	0
12.46	-1.39982	1.53715	-3.06171	0.525362	1.32688	1.07607	0.0382249	-0.0238208	-0.136608	0.185124	-0.28674	0	0	0.243198	-0.133086	-0.342453	0.668574	-0.256135	0	0	-0.455303	-0.0183424	-0.0497502	-0.179204	-0.428771	0.237807	1.30543	1.29572	0	0	-0.27403	-0.380045	-0.000712712	1.36635	1.5708	0	0
12.47	-2.05011	1.55008	-2.413	0.525587	1.32826	1.07886	0.0239401	-0.0178888	-0.305466	0.17071	-0.335542	0	0	0.22984	-0.154715	-0.348349	0.658651	-0.285731	0	0	-0.46989	0.000257998	-0.0403499	-0.176401	-0.436133	0.241444	1.30634	1.28807	0	0	-0.269912	-0.376474	0.00259833	1.36203	1.5708	0	0
12.48	-2.19922	1.55163	-2.26445	0.524946	1.33005	1.0785	0.0212854	-0.0150122	-0.308232	0.172288	-0.331367	0	0	0.226455	-0.156541	-0.348494	0.652471	-0.295755	0	0	-0.468383	0.00393817	-0.0387441	-0.180437	-0.441177	0.243833	1.30942	1.28334	0	0	-0.274473	-0.375614	0.00337621	1.36323	1.5708	0	0
12.49	-2.35901	1.55242	-2.1072	0.524528	1.33172	1.07814	0.0187777	-0.0121899	-0.307175	0.172987	-0.333385	0	0	0.221692	-0.159021	-0.34895	0.650049	-0.29431	0	0	-0.467261	0.00664279	-0.0355862	-0.184975	-0.444849	0.243315	1.3127	1.28681	0	0	-0.278842	-0.374501	0.00393209	1.36502	1.5708	0	0
12.5	-1.64768	1.54758	-2.82012	0.523113	1.33384	1.07473	0.0267331	-0.0120175	-0.129314	0.189837	-0.262161	0	0	0.225548	-0.142475	-0.348815	0.650262	-0.272833	0	0	-0.44922	-0.00604486	-0.0426268	-0.191432	-0.450528	0.252272	1.31634	1.2724	0	0	-0.293698	-0.37532	-5.15846e-05	1.37176	1.5708	0	0
12.51	-1.82011	1.54875	-2.64994	0.522587	1.33561	1.07477	0.0219994	-0.0096966	-0.125548	0.190594	-0.260538	0	0	0.215544	-0.144651	-0.349505	0.646625	-0.266053	0	0	-0.449494	-0.0036269	-0.0409833	-0.19363	-0.455238	0.255662	1.31846	1.26935	0	0	-0.298779	-0.37406	-0.000581921	1.37375	1.5708	0	0
12.52	-1.97634	1.54894	-2.49672	0.522155	1.33734	1.07484	0.0181894	-0.00796247	-0.12368	0.19281	-0.2586	0	0	0.205223	-0.146083	-0.35163	0.640288	-0.262683	0	0	-0.449272	-0.00214999	-0.0390764	-0.19551	-0.459483	0.258978	1.32	1.2664	0	0	-0.303694	-0.373006	-0.000973689	1.37555	1.5708	0	0
12.53	-2.08949	1.54907	-2.3867	0.521776	1.33901	1.0749	0.0154044	-0.00624589	-0.123296	0.195204	-0.259066	0	0	0.196265	-0.147356	-0.354348	0.632554	-0.261585	0	0	-0.448148	-0.000896179	-0.0359149	-0.199349	-0.461796	0.258188	1.32142	1.27229	0	0	-0.306892	-0.372545	0.000651772	1.37613	1.5708	0	0
12.54	-2.18735	1.54832	-2.29172	0.521398	1.34056	1.07515	0.0130324	-0.00539104	-0.123697	0.198705	-0.256524	0	0	0.186767	-0.147589	-0.356728	0.622507	-0.260784	0	0	-0.447326	-0.000473853	-0.034948	-0.199629	-0.46569	0.262586	1.32168	1.26825	0	0	-0.311217	-0.371644	-5.83836e-05	1.37708	1.5708	0	0
12.55	-2.22724	1.54757	-2.25431	0.520973	1.34201	1.07545	0.0124339	-0.00589751	-0.124131	0.203155	-0.252104	0	0	0.178514	-0.147516	-0.361334	0.613353	-0.261587	0	0	-0.445297	-0.000834873	-0.035996	-0.19696	-0.470591	0.271554	1.32047	1.25382	0	0	-0.316117	-0.370401	-0.00232536	1.37731	1.5708	0	0
12.56	-2.34063	1.54346	-2.14231	0.520415	1.34335	1.07631	0.00478803	-0.00620385	-0.123966	0.199667	-0.261786	0	0	0.165996	-0.147437	-0.367654	0.604276	-0.265394	0	0	-0.449915	-0.00108706	-0.0372681	-0.19591	-0.47347	0.274403	1.32195	1.25564	0	0	-0.319595	-0.369705	-0.00482278	1.38006	1.5708	0	0
12.57	-2.46494	1.51359	-1.99992	0.513192	1.34563	1.08008	-0.0599275	-0.0169779	-0.0347755	0.150081	-0.258655	0	0	0.122733	-0.123766	-0.360493	0.579304	-0.269753	0	0	-0.475755	0.00316088	-0.0583442	-0.201589	-0.484331	0.272168	1.33121	1.25444	0	0	-0.321659	-0.36386	-0.00233936	1.38164	1.5708	0	0
